PathFileType  4	(X/Y/Z) C:\Users\antoi\Documents\MyRepositories\mobilecap\ResultsAnalysis
DataRate	CameraRate	NumFrames	NumMarkers	Units	OrigDataRate	OrigDataStartFrame	OrigNumFrames
100.0	100.0	6	51	mm	100.0	711	1137
Frame#	Time	r_knee			r_shank_antsup			r_ankle			r_calc			r_5meta			r_toe			L_knee			L_shank_antsup			L_ankle			L_calc			L_5meta			L_toe			r_sh2			r_sh3			r_sh4			L_sh2			L_sh3			r_thigh1			r_thigh2			r_thigh3			r_thigh4			r_thigh5			L_thigh1			L_thigh2			L_thigh3			L_thigh4			r.ASIS			r.PSIS			L.ASIS			L.PSIS			C7			R_Shoulder			L_Shoulder			R_Sternum			L_Sternum			R_humerus			R_elbow_med			R_elbow_lat			R_forearm			R_wrist_radius			R_wrist_ulna			L_humerus			L_elbow_med			L_elbow_lat			L_forearm			L_wrist_radius			L_wrist_ulna			R_HJC			L_HJC			R_HJC_reg			L_HJC_reg			
		X1	Y1	Z1	X2	Y2	Z2	X3	Y3	Z3	X4	Y4	Z4	X5	Y5	Z5	X6	Y6	Z6	X7	Y7	Z7	X8	Y8	Z8	X9	Y9	Z9	X10	Y10	Z10	X11	Y11	Z11	X12	Y12	Z12	X13	Y13	Z13	X14	Y14	Z14	X15	Y15	Z15	X16	Y16	Z16	X17	Y17	Z17	X18	Y18	Z18	X19	Y19	Z19	X20	Y20	Z20	X21	Y21	Z21	X22	Y22	Z22	X23	Y23	Z23	X24	Y24	Z24	X25	Y25	Z25	X26	Y26	Z26	X27	Y27	Z27	X28	Y28	Z28	X29	Y29	Z29	X30	Y30	Z30	X31	Y31	Z31	X32	Y32	Z32	X33	Y33	Z33	X34	Y34	Z34	X35	Y35	Z35	X36	Y36	Z36	X37	Y37	Z37	X38	Y38	Z38	X39	Y39	Z39	X40	Y40	Z40	X41	Y41	Z41	X42	Y42	Z42	X43	Y43	Z43	X44	Y44	Z44	X45	Y45	Z45	X46	Y46	Z46	X47	Y47	Z47	X48	Y48	Z48	X49	Y49	Z49	X50	Y50	Z50	X51	Y51	Z51	

711	7.10000000	-201.61947	462.88221	-384.02769	-171.81987	348.66443	-384.50991	-295.67809	92.69779	-391.13798	-341.94764	51.87291	-440.53520	-190.68835	41.06958	-341.33137	-150.36810	59.30076	-380.45313	-188.50518	458.64077	-787.35024	-154.83668	346.44434	-755.61785	-300.16299	92.01109	-792.56439	-347.12651	55.55077	-753.43981	-186.82896	36.43650	-819.05833	-146.75935	56.29591	-767.09143	-202.79725	240.01624	-389.86624	-233.40597	361.66265	-343.06426	-276.34281	258.98029	-358.52745	-206.09728	385.01802	-819.00869	-245.28548	269.10595	-832.64376	-245.92259	769.42741	-415.38164	-198.85082	673.93286	-397.64572	-234.73865	632.94696	-358.44729	-344.06411	724.19902	-385.21481	-289.49278	624.33598	-364.94143	-244.90242	749.80035	-783.53614	-177.46994	633.56504	-792.31706	-347.81217	706.12052	-802.87121	-275.04761	583.80775	-806.27100	-240.13780	876.81501	-470.83246	-403.37841	961.90888	-543.99550	-232.23884	876.24245	-714.26518	-404.10121	962.45553	-659.41199	-268.61404	1389.96798	-587.01659	-217.82013	1370.03887	-441.26685	-197.09454	1373.67117	-733.42412	-150.35896	1324.75813	-562.67297	-147.98493	1322.66286	-605.76894	-239.38041	1263.50018	-356.45407	-380.98090	1093.79652	-368.28723	-336.73902	1111.16637	-298.95711	-223.14672	1093.97364	-349.44104	-143.71905	1098.02203	-412.41487	-136.38244	1063.86780	-398.25559	-218.21680	1242.53112	-823.56280	-336.77582	1074.19882	-805.72058	-314.08544	1089.84377	-885.00584	-210.43289	1081.51243	-849.45475	-108.53460	1089.39518	-773.95987	-101.46961	1059.20001	-784.66016	-343.30478	828.95505	-499.22422	-333.83642	823.74538	-688.29353	-323.30031	827.08425	-504.56005	-324.30645	827.84553	-665.30557	
712	7.11000000	-204.59998	463.96519	-384.57968	-174.69322	350.04397	-384.64579	-296.04968	93.41337	-390.14012	-341.95434	51.88126	-440.52770	-190.68585	40.99325	-341.27766	-150.36213	59.23543	-380.45669	-191.37702	460.09929	-786.91453	-157.71337	348.21706	-755.25040	-300.34458	92.07747	-792.64679	-347.09670	55.53797	-753.39509	-186.80266	36.51960	-819.17301	-146.75798	56.30634	-767.09413	-204.62003	241.62799	-389.52865	-236.45997	362.69756	-343.04364	-278.06966	259.20924	-358.45262	-209.11842	386.46637	-818.66863	-247.70339	269.92982	-832.17960	-240.70561	771.96281	-415.49723	-195.96928	675.02619	-397.69546	-233.17728	635.14706	-358.70290	-339.91216	729.47148	-385.26264	-288.20716	628.11227	-365.21158	-240.02505	752.69864	-782.79268	-175.94739	634.55870	-791.75484	-343.86473	711.92447	-802.49752	-274.76004	587.47664	-805.64796	-234.62527	883.50613	-470.68165	-398.99662	966.93814	-543.78060	-226.76783	883.35958	-714.28341	-399.76078	967.40353	-659.32272	-271.02367	1397.11416	-587.09794	-220.68933	1377.72857	-441.20019	-199.86055	1381.90030	-733.73629	-152.06984	1333.48341	-562.66600	-149.55979	1331.29023	-605.61667	-242.20916	1271.09122	-356.25536	-383.84291	1101.49193	-368.80150	-340.00504	1118.77381	-299.26105	-226.05500	1101.35886	-349.13833	-146.23720	1105.37273	-411.48795	-139.01819	1071.13726	-397.37844	-220.89350	1250.71569	-823.90298	-338.84485	1081.92812	-805.47419	-316.57706	1097.61562	-884.56584	-212.81584	1089.26374	-849.78006	-110.54627	1096.83535	-774.74761	-103.46323	1066.71832	-785.74822	-337.29084	834.53622	-499.19869	-327.79136	829.62298	-688.27456	-317.31014	833.10029	-504.37815	-318.37364	833.74734	-665.23380	
713	7.12000000	-207.71137	465.13653	-385.11604	-177.54642	351.46270	-384.87087	-296.34721	93.90310	-389.38836	-341.95384	51.87041	-440.52954	-190.67624	40.97873	-341.25192	-150.34617	59.17632	-380.45148	-194.42376	461.57541	-786.31208	-160.71638	350.10788	-755.06738	-300.52900	92.20477	-792.85825	-347.07114	55.58060	-753.41283	-186.76644	36.56481	-819.23094	-146.74681	56.34936	-767.09457	-206.64596	243.44617	-389.17556	-239.45177	363.62996	-343.18813	-279.97177	259.42264	-358.47801	-212.27519	387.79094	-818.30105	-250.23189	270.38443	-831.16565	-235.59558	774.36822	-415.59686	-193.24187	676.10148	-397.89160	-231.64987	637.36678	-358.92869	-335.75897	734.66664	-385.19502	-286.89285	631.70326	-365.48231	-235.19417	755.64589	-782.17003	-174.43481	635.60366	-791.05854	-339.96391	717.54565	-802.16627	-274.52916	591.14727	-805.08256	-229.15137	889.98802	-470.39308	-394.68068	971.62133	-543.59794	-221.26210	890.39077	-714.30966	-395.49104	971.98664	-659.06074	-273.34096	1403.83313	-587.11743	-223.47198	1384.95634	-441.07203	-202.33971	1389.68916	-733.96696	-153.72952	1341.67697	-562.85521	-151.07908	1339.47288	-605.57669	-244.98283	1278.11671	-356.05853	-386.55908	1108.66859	-369.46110	-343.16456	1125.88747	-299.65802	-228.76107	1108.14616	-348.96114	-148.59204	1112.33206	-410.48369	-141.45119	1078.07981	-396.32480	-223.54695	1258.37282	-824.20044	-340.74085	1089.09393	-805.16555	-319.07072	1104.91510	-884.47535	-214.98000	1096.50383	-850.04678	-112.48992	1103.90082	-775.58104	-105.38193	1073.84856	-786.86877	-331.22141	839.82104	-499.14534	-321.65522	835.28332	-688.22652	-311.28990	838.89060	-504.07253	-312.42017	839.39951	-665.13708	
714	7.13000000	-210.93849	466.44209	-385.61584	-180.47472	352.89036	-385.29659	-296.47182	93.83201	-389.29630	-341.92455	51.87638	-440.57196	-190.66350	40.96457	-341.23823	-150.35278	59.12664	-380.35995	-197.65543	463.03164	-785.63794	-163.90457	352.07991	-754.80238	-300.73548	92.35597	-793.15410	-347.07529	55.71313	-753.46375	-186.74633	36.59724	-819.22582	-146.72742	56.40783	-767.08534	-208.50193	244.77065	-389.07253	-242.36728	364.32416	-343.71038	-282.03852	259.80429	-358.68422	-215.58959	388.96604	-817.81438	-252.11921	271.04549	-830.88453	-230.47816	776.66070	-415.78480	-190.83318	677.21246	-398.31566	-230.24402	639.71204	-358.92736	-331.62310	739.67523	-385.17359	-285.55954	635.16999	-365.84047	-230.43667	758.52313	-781.39196	-173.07228	636.55384	-790.18823	-336.12954	723.13316	-802.03833	-274.35299	594.92539	-804.80374	-223.67515	896.28207	-470.05546	-390.30823	975.85541	-543.16347	-215.74868	897.28377	-714.39576	-391.26106	976.25207	-658.68943	-275.65132	1410.10178	-587.07832	-226.16784	1391.58613	-441.11329	-204.85023	1396.93415	-734.19027	-155.36146	1349.35794	-562.97015	-152.55895	1347.17993	-605.81596	-247.67119	1284.67758	-355.97263	-389.06183	1115.19732	-370.21420	-346.16018	1132.37654	-300.16147	-231.33188	1114.51858	-348.78858	-150.78037	1118.86564	-409.47345	-143.71312	1084.59365	-395.21812	-226.16109	1265.60458	-824.78824	-342.59760	1095.71679	-804.93462	-321.42276	1111.69323	-884.32404	-216.95756	1103.21965	-850.26135	-114.23220	1110.52675	-776.29230	-107.20190	1080.77611	-788.06593	-325.00174	844.77577	-499.04153	-315.45142	840.72038	-688.13466	-305.10534	844.26353	-503.72465	-306.43585	844.81742	-665.06879	
715	7.14000000	-214.28174	467.78568	-386.15549	-183.52268	354.32070	-385.84309	-296.39563	93.09553	-390.10818	-341.84810	51.96842	-440.60696	-190.66452	40.90039	-341.20069	-150.35578	59.09492	-380.22617	-201.04639	464.48743	-785.02550	-167.15927	354.06305	-754.38354	-300.95674	92.51332	-793.42425	-347.08298	55.74225	-753.29189	-186.70567	36.60244	-819.18847	-146.70033	56.46952	-767.06960	-210.08402	245.45628	-389.37271	-245.40411	365.03060	-344.22974	-284.14500	260.35896	-358.78588	-218.99602	390.16263	-817.26147	-253.42799	272.13793	-831.69300	-225.32031	778.73396	-416.11225	-188.59967	678.21830	-398.85741	-228.96874	642.02013	-358.87195	-327.47667	744.44314	-385.23878	-284.25694	638.63355	-366.24563	-225.77386	761.17980	-780.41249	-171.81814	637.43619	-789.19254	-332.26504	728.72737	-802.06118	-274.16111	598.75795	-804.52224	-218.24807	902.41970	-469.69821	-385.93750	979.73812	-542.76605	-210.35450	903.90679	-714.33324	-387.05468	980.18518	-658.42381	-277.94029	1415.90319	-587.00110	-228.79428	1397.66725	-441.19320	-208.27004	1403.33308	-734.31415	-157.04573	1356.53226	-562.92336	-154.10200	1354.36025	-606.03150	-250.20901	1290.85563	-355.89920	-391.39247	1121.04671	-370.91359	-348.99460	1138.33986	-300.69696	-233.82607	1120.56806	-348.39924	-152.80122	1125.01909	-408.42102	-145.81451	1090.69434	-394.16463	-228.63469	1272.32669	-825.34454	-344.36104	1101.82340	-804.76657	-323.59819	1117.93366	-883.86714	-218.92795	1109.52410	-850.69802	-115.78025	1116.59618	-776.82261	-108.86249	1087.38973	-789.49755	-318.80103	849.51569	-498.88518	-309.23866	845.84604	-687.98599	-298.89553	849.36962	-503.32825	-300.45586	849.99394	-664.86547	
716	7.15000000	-217.72078	469.10471	-386.75068	-186.62059	355.73674	-386.34075	-296.31435	92.25553	-391.10438	-341.76779	52.09799	-440.59507	-190.66348	40.83491	-341.15264	-150.33994	59.09035	-380.13747	-204.55210	465.91289	-784.26415	-170.35872	356.00576	-753.96660	-301.17202	92.68123	-793.60701	-347.06988	55.83228	-753.28055	-186.64785	36.59918	-819.13887	-146.67335	56.53945	-767.05164	-211.63278	245.82660	-389.97332	-248.59930	365.91411	-344.53699	-286.23066	260.88469	-358.65757	-222.40745	391.48066	-816.80594	-254.75619	273.91434	-833.17748	-220.18462	780.54701	-416.47328	-186.32851	679.02438	-399.31613	-227.70864	644.03227	-359.06887	-323.32135	748.99777	-385.35596	-283.03268	642.04191	-366.67466	-221.18408	763.59555	-779.50271	-170.70461	638.30093	-788.22621	-328.32706	734.14775	-801.97752	-274.00120	602.52316	-804.05288	-212.89263	908.29280	-469.35954	-381.78386	983.25009	-542.66259	-205.06298	910.22253	-714.09990	-382.91062	983.70751	-658.19534	-280.14786	1421.24315	-587.02502	-231.33788	1403.31513	-441.09235	-212.36585	1408.92462	-734.19338	-158.76843	1363.17873	-562.90439	-155.70931	1361.05864	-606.11943	-252.61934	1296.54629	-355.71751	-393.55020	1126.33107	-371.62558	-351.71452	1143.84339	-301.21108	-236.23598	1126.24880	-347.80345	-154.66294	1130.81712	-407.32732	-147.78441	1096.46400	-393.07102	-230.89509	1278.37591	-825.23807	-346.01987	1107.41307	-804.48427	-325.69402	1123.60260	-883.34953	-221.02604	1115.39832	-851.54779	-117.23746	1122.15118	-777.39441	-110.37028	1093.28168	-790.82379	-312.71398	853.96925	-498.74793	-303.02373	850.61182	-687.84775	-292.80870	854.20805	-503.01648	-294.38464	854.84796	-664.62371	
